<svg height="512" viewBox="0 0 56 56" width="512" xmlns="http://www.w3.org/2000/svg"><g id="Page-1" fill="none" fill-rule="evenodd"><g id="026---Searching-Web" fill="rgb(0,0,0)" fill-rule="nonzero" transform="translate(-1)"><path id="Shape" d="m24.2 11.932c.219.034.443.047.666.061.9495356-.0214113 1.8793767.2725929 2.644.836.1585926.1096758.3235487.2098515.494.3.1376325.0834235.299138.1186099.459.1.0296685-.1127524.0327494-.230854.009-.345-.1176639-.3981095-.2599377-.7885276-.426-1.169-.3584115-1.0220159-.423195-2.1240292-.187-3.181.1173748-.47082606.1648828-.95635207.141-1.441-1.325.7-2.553 2.3-3.843 3.5-.64.6-.71.849-.694.947.014.121.305.326.737.392z"/><path id="Shape" d="m34 28.86c-.1073376-1.0121476-.5010645-1.9727025-1.135-2.769-.5751074-.8503446-.9824127-1.8027601-1.2-2.806-4.3673752 1.0546478-7.4964762 4.8907817-7.652 9.381 2.479-1.174 4.844-.625 7.153-1.2 1.363-.333 2.771-1.337 2.834-2.606z"/><path id="Shape" d="m33.31 17.035c1.7115718-1.8162332 2.3835137-4.3774467 1.784-6.8-.606-2.235-2.378-4.435-1.814-7.32-3.2717515-1.90924425-6.9919172-2.91520741-10.78-2.915-.226 0-.446.027-.671.034-.6940634 2.03960548-1.5490872 4.02083975-2.557 5.925-.4514413 1.06060771-1.2736712 1.92051872-2.313 2.419-1.525.609-3.153-.2-4.04.177-.4110089.2185845-.6916471.62167625-.754 1.083-.0836002.6100449-.0031759 1.2313484.233 1.8.4739628 1.2798349 1.3190066 2.3891507 2.427 3.186 1.362.97 3.4 1.669 4.343 3.518 1.037 2 .233 4.349-.865 5.883-1.749 2.405-3.564 3.053-5.169 6.5-.306.66-1.093 2.36-2.644 2.36-1.22901323-.0652418-2.21236374-1.044285-2.283-2.273-.0363083-.7277215.02150302-1.4570852.172-2.17.16780235-1.385675-.20544565-2.7826685-1.042-3.9-1.009-1.338-2.883-2.681-2.851-4.849.14091099-1.2540057.66465484-2.4341752 1.5-3.38.648-.925.889-1.595.759-2.106-.154-.615-.88-1.107-1.608-1.559-.565-.35-1.13-.7-1.7-1.056-3.39537333 6.4978195-3.23617037 14.2798657.42211208 20.6333834s10.30866772 10.3980158 17.63288792 10.7236166c-3.7557465-4.7005854-4.5493904-11.1136352-2.0528364-16.587971 2.496554-5.4743359 7.8591366-9.0798575 13.8708364-9.326029zm-10.519-7.9c1.183-1.1 2.574-2.883 4.19-3.764.6644949-.48743434 1.5637461-.50425026 2.246-.042 1.047.794.813 2.628.58 3.65-.1547205.68667976-.1127842 1.4030629.121 2.067.2111036.4751394.3807351.9676397.507 1.472.1876914.8218919-.0794539 1.6813365-.7 2.252-.7668153.5705211-1.7995008.630273-2.627.152-.506-.253-.974-.639-1.318-.771-.6259183-.1302041-1.261305-.2097947-1.9-.238-1.1639027-.0849204-2.1384311-.9145646-2.408-2.05-.0437259-1.0713943.4466059-2.09476052 1.309-2.732z"/><path id="Shape" d="m37.024 9.708c.6343481 2.5320041.1842346 5.2138397-1.242 7.4 2.9959635.3349628 5.8351479 1.5140549 8.187 3.4-.277164-6.508765-3.5130595-12.53417465-8.786-16.36.00576.33004331.0483573.65841133.127.979.361 1.473 1.262 2.92 1.714 4.581z"/><path id="Shape" d="m8.681 13.718c.20275957 1.3421345-.18361503 2.7064742-1.06 3.743-.5730262.6433445-.9647349 1.4274522-1.135 2.272-.018 1.207 1.428 2.251 2.449 3.606 1.145813 1.5316797 1.6575777 3.4458733 1.429 5.345-.1138116.5548147-.1717675 1.1196336-.173 1.686.0102593.2028326.1098659.3906936.272.513.021 0 .292.019.857-1.2 1.779-3.81 3.795-4.672 5.361-6.823.749-1.046 1.332-2.6.709-3.8-.624-1.219-2.319-1.8-3.726-2.8-1.4366088-1.0325543-2.5315343-2.4712112-3.144-4.131-.3623435-.9042887-.473598-1.8896857-.322-2.852.1819794-1.11720913.902828-2.07297878 1.927-2.555 1.542-.666 3.181.165 4.1-.2.5802682-.34842191 1.0307963-.87690577 1.283-1.505.8212216-1.5496862 1.5362014-3.15337938 2.14-4.8-6.2347743.840008-11.78915952 4.36777346-15.2 9.654.58.362 1.16.725 1.739 1.084 1.15758971.5635187 2.0515826 1.5539367 2.494 2.763z"/><path id="Shape" d="m45.983 43.567c-.4425549.5005542-.9154458.9734451-1.416 1.416l1.943 1.943 1.416-1.416z"/><path id="Shape" d="m56.414 52.586-6.363-6.364-2.829 2.828 6.364 6.364c.791167.755814 2.036833.755814 2.828 0 .7807639-.7809997.7807639-2.0470003 0-2.828z"/><path id="Shape" d="m34 19c-7.7319865 0-14 6.2680135-14 14s6.2680135 14 14 14 14-6.2680135 14-14c-.0082673-7.7285595-6.2714405-13.9917327-14-14zm0 26c-6.627417 0-12-5.372583-12-12s5.372583-12 12-12 12 5.372583 12 12c-.0071648 6.624447-5.375553 11.9928352-12 12z"/><path id="Shape" d="m34 23c-.118 0-.233.014-.35.018.1758612.695968.4712498 1.3561089.873 1.951.8963668 1.1430523 1.4128053 2.5378208 1.477 3.989-.118 2.363-2.27 3.938-4.349 4.453-2.768.684-5.372-.009-7.467 1.467.9914484 5.1853398 5.8429123 8.7067514 11.0802335 8.042534 5.2373212-.6642175 9.0561316-5.285227 8.7217614-10.5539s-4.7067234-9.3698399-9.9859949-9.366634z"/></g></g></svg>